<?xml version="1.0" encoding="iso-8859-1"?>
<!-- Generator: Adobe Illustrator 19.0.0, SVG Export Plug-In . SVG Version: 6.00 Build 0)  -->
<svg version="1.1" id="Capa_1" xmlns="http://www.w3.org/2000/svg" xmlns:xlink="http://www.w3.org/1999/xlink" x="0px" y="0px"
	 viewBox="0 0 512 512" style="enable-background:new 0 0 512 512;" xml:space="preserve">
<path style="fill:#F9D1B7;" d="M453.256,327.043v86.779c0,21.495-17.425,38.92-38.92,38.92H97.654
	c-21.495,0-38.92-17.425-38.92-38.92v-86.779c0-56.568,32.673-105.517,80.188-128.985c19.165-9.47,40.75-14.791,63.587-14.791
	h106.972c22.827,0,44.412,5.32,63.587,14.791c6.795,3.357,13.285,7.232,19.419,11.576
	C429.26,235.675,453.256,278.562,453.256,327.043z"/>
<g>
	<path style="fill:#E2A67D;" d="M453.256,380.76v33.059c0,21.495-17.425,38.92-38.92,38.92h-52.987l-105.405-54.93
		c-8.128-4.242-13.173-12.563-13.173-21.718V247.198c0-16.286,13.234-29.54,29.5-29.54c2.624,0,5.249,0.346,7.792,1.048
		c9.877,2.686,17.547,10.142,20.507,19.938l25.085,82.843l114.174,50.78C444.782,374.464,449.288,377.332,453.256,380.76z"/>
	<path style="fill:#E2A67D;" d="M142.064,361.39c-4.204,0-7.611-3.407-7.611-7.611v-51.716c0-4.204,3.408-7.611,7.611-7.611
		c4.204,0,7.611,3.407,7.611,7.611v51.716C149.676,357.983,146.268,361.39,142.064,361.39z"/>
	<path style="fill:#E2A67D;" d="M269.219,247.2v128.883c0,9.165-5.045,17.486-13.173,21.718L150.63,452.742H97.654
		c-21.495,0-38.92-17.425-38.92-38.92v-33.059c3.967-3.428,8.473-6.297,13.427-8.494l114.174-50.78l25.085-82.853
		c2.96-9.786,10.63-17.242,20.507-19.938c2.543-0.692,5.168-1.048,7.792-1.048C255.985,217.65,269.219,230.904,269.219,247.2z"/>
	<path style="fill:#E2A67D;" d="M309.48,183.265c22.827,0,44.412,5.32,63.587,14.791c-11.271,54.3-59.488,95.233-117.073,95.233
		s-105.802-40.933-117.073-95.233c19.165-9.47,40.75-14.791,63.587-14.791H309.48z"/>
</g>
<path style="fill:#FE9700;" d="M458.586,307.662c-1.017,6.388-2.838,12.878-5.33,19.409c-4.944,12.939-14.923,26.041-27.577,38.909
	c-26.031,26.448-63.353,51.879-91.378,72.661c-6.724,4.984-12.909,9.704-18.28,14.099H98.252l-0.336-0.122
	c48.634-23.193,99.363-59.976,144.854-98.092c26.601-22.298,51.411-45.043,72.966-65.805c39.53-38.075,68.124-69.457,76.75-79.09
	c0.02-0.02,0.041-0.041,0.051-0.061c1.577-1.75,4.181-2.126,6.185-0.895C461.078,246.984,458.586,307.662,458.586,307.662z"/>
<g>
	<path style="fill:#F26200;" d="M317.124,339.775c-2.465,0-4.884-1.196-6.349-3.404c-2.324-3.502-1.368-8.226,2.134-10.551
		c0.475-0.315,47.901-31.997,82.56-72.588c2.73-3.196,7.535-3.574,10.731-0.846c3.197,2.73,3.576,7.534,0.846,10.731
		c-36.081,42.256-83.712,74.056-85.723,75.389C320.03,339.364,318.569,339.775,317.124,339.775z"/>
	<path style="fill:#F26200;" d="M425.678,365.98c-26.031,26.448-63.353,51.879-91.378,72.661l-78.357-40.832
		c-8.128-4.242-13.173-12.563-13.173-21.718v-21.565c26.601-22.298,51.411-45.043,72.966-65.805l9.918,32.765L425.678,365.98z"/>
</g>
<path style="fill:#F9D1B7;" d="M417.469,148.74c0,19.683-15.95,35.633-35.634,35.633c-2.289,0-4.537-0.214-6.704-0.631
	c-16.469-3.133-28.92-17.608-28.92-35.003c0-17.537,12.665-32.104,29.347-35.074c2.034-0.356,4.14-0.549,6.276-0.549
	C401.519,113.117,417.469,129.067,417.469,148.74z"/>
<path style="fill:#E2A67D;" d="M375.559,113.666v60.047c0,3.377-0.142,6.724-0.427,10.03c-16.469-3.133-28.92-17.608-28.92-35.003
	C346.212,131.203,358.877,116.637,375.559,113.666z"/>
<path style="fill:#F9D1B7;" d="M165.776,148.74c0,17.395-12.451,31.87-28.92,35.003c-2.167,0.417-4.415,0.631-6.704,0.631
	c-19.683,0-35.634-15.95-35.634-35.633c0-19.673,15.95-35.623,35.634-35.623c2.136,0,4.242,0.193,6.276,0.549
	C153.112,116.637,165.776,131.203,165.776,148.74z"/>
<path style="fill:#E2A67D;" d="M136.856,183.743c-0.285-3.306-0.427-6.653-0.427-10.03v-60.047
	c16.683,2.97,29.347,17.537,29.347,35.074C165.776,166.135,153.325,180.61,136.856,183.743z"/>
<path style="fill:#F9D1B7;" d="M362.336,67.372v106.341c0,39.489-21.525,73.953-53.486,92.293
	c-11.942,6.856-25.349,11.464-39.631,13.234c-4.333,0.539-8.748,0.814-13.224,0.814c-4.476,0-8.891-0.275-13.224-0.814
	c-14.292-1.77-27.689-6.378-39.631-13.234c-31.961-18.341-53.486-52.804-53.486-92.293V67.372H362.336z"/>
<g>
	<path style="fill:#E2A67D;" d="M362.336,67.372v35.888c-0.875-0.112-1.76-0.275-2.624-0.498
		c-8.087-2.065-22.267-4.516-43.914-4.516c-16.377,0-34.779,1.394-54.676,4.15c-11.485,1.587-23.122,2.39-34.596,2.39
		c-0.01,0-0.01,0-0.01,0c-30.385-0.01-56.507-5.554-76.862-12.186V67.372H362.336z"/>
	<path style="fill:#E2A67D;" d="M308.85,266.007c-11.942,6.856-25.349,11.464-39.631,13.234c-4.333,0.539-8.748,0.814-13.224,0.814
		c-4.476,0-8.891-0.275-13.224-0.814v-32.043c0-16.286,13.234-29.54,29.5-29.54c2.624,0,5.249,0.346,7.792,1.048
		c9.877,2.686,17.547,10.142,20.507,19.938L308.85,266.007z"/>
	<path style="fill:#E2A67D;" d="M269.218,247.198v32.043c-4.333,0.539-8.748,0.814-13.224,0.814
		c-19.246,0-37.292-5.107-52.855-14.048l8.28-27.363c2.96-9.796,10.63-17.252,20.507-19.938c2.543-0.702,5.167-1.048,7.792-1.048
		C255.984,217.658,269.218,230.912,269.218,247.198z"/>
</g>
<path style="fill:#723700;" d="M120.061,51.887c-5.323,3.51-4.92,11.453,0.729,14.409c21.729,11.368,72.281,32.149,138.521,22.996
	c54.946-7.593,87.068-3.573,103.661,0.65c6.487,1.651,12.225-4.577,9.988-10.886C363.311,51.839,336.596,0,273.076,0
	C206.236,0,144.405,35.835,120.061,51.887z"/>
<path style="fill:#592800;" d="M362.976,89.944c-16.601-4.222-48.715-8.25-103.666-0.651c-66.242,9.155-116.788-11.627-138.516-23
	c-5.656-2.95-6.053-10.894-0.732-14.404c0.081-0.061,0.173-0.112,0.264-0.173c0.448,0.366,0.936,0.702,1.485,0.987
	c21.728,11.362,72.274,32.144,138.516,22.989c54.951-7.588,87.065-3.57,103.666,0.651c2.777,0.712,5.422-0.031,7.355-1.607
	c0.58,1.495,1.119,2.94,1.607,4.323C375.193,85.367,369.456,91.592,362.976,89.944z"/>
<g>
	<path style="fill:#F9D1B7;" d="M235.398,231.461L235.398,231.461c-5.419,1.476-9.697,5.636-11.324,11.011l-25.838,85.341
		c-0.549,1.814-1.747,3.363-3.365,4.351L77.538,384.347c-21.268,9.459-30.263,34.814-19.71,55.561l0,0
		c10.247,20.148,34.965,28.063,55.01,17.617l137.097-71.448c3.724-1.941,6.059-5.791,6.059-9.99V247.198
		C255.994,236.446,245.773,228.635,235.398,231.461z"/>
	<path style="fill:#F9D1B7;" d="M454.163,439.904c-7.185,14.117-21.464,22.236-36.261,22.236c-6.333,0-12.747-1.492-18.755-4.618
		l-133.13-69.376l-3.968-2.07c-3.714-1.938-6.059-5.785-6.059-9.986V247.201c0-6.617,3.867-12.107,9.256-14.705
		c3.38-1.634,7.348-2.121,11.346-1.035c5.419,1.472,9.692,5.632,11.326,11.011l25.838,85.34c0.548,1.817,1.746,3.359,3.359,4.354
		l117.339,52.184C455.715,393.809,464.717,419.16,454.163,439.904z"/>
</g>
<path style="fill:#E2A67D;" d="M269.183,247.201v128.888c0,4.313-1.126,8.444-3.166,12.057l-3.968-2.07
	c-3.714-1.938-6.059-5.785-6.059-9.986V247.201c0-6.617,3.867-12.107,9.256-14.705C267.762,236.829,269.183,241.853,269.183,247.201
	z"/>
<g>
	<path style="fill:#F26200;" d="M452.803,274.775c-4.76,5.775-18.085,21.13-46.217,48.663c-1.482,1.451-3.41,2.172-5.328,2.172
		c-1.979,0-3.948-0.761-5.44-2.283c-2.943-3.004-2.892-7.825,0.112-10.768c35.175-34.424,49.373-52.387,50.348-53.382
		C449.017,264.596,451.159,269.843,452.803,274.775z"/>
	<path style="fill:#F26200;" d="M275.293,426.711l-38.301,26.031h-25.727c1.705-1.543,55.473-38.626,55.473-38.626
		c3.471-2.365,8.21-1.461,10.575,2.02C279.667,419.607,278.774,424.346,275.293,426.711z"/>
</g>
<g>
	<path style="fill:#E2A67D;" d="M206.798,163.631c-10.473,0-20.102-4.653-26.42-12.767c-2.583-3.316-1.988-8.099,1.329-10.682
		c3.319-2.581,8.1-1.987,10.682,1.33c3.413,4.383,8.665,6.896,14.408,6.896s10.995-2.513,14.407-6.896
		c2.583-3.317,7.365-3.913,10.682-1.33s3.912,7.365,1.33,10.682C226.899,158.978,217.27,163.631,206.798,163.631z"/>
	<path style="fill:#E2A67D;" d="M305.191,163.631C305.191,163.631,305.192,163.631,305.191,163.631
		c-10.473,0-20.102-4.653-26.419-12.767c-2.582-3.317-1.987-8.099,1.33-10.682c3.316-2.581,8.1-1.987,10.682,1.33
		c3.412,4.383,8.664,6.896,14.407,6.896s10.996-2.513,14.408-6.896c2.583-3.318,7.364-3.913,10.682-1.33
		c3.317,2.583,3.912,7.366,1.329,10.682C325.293,158.978,315.663,163.631,305.191,163.631z"/>
	<path style="fill:#E2A67D;" d="M255.994,213.431c-18.448,0-33.457-15.009-33.457-33.458c0-4.204,3.408-7.611,7.611-7.611
		c4.204,0,7.611,3.407,7.611,7.611c0,10.055,8.18,18.235,18.234,18.235c10.055,0,18.235-8.18,18.235-18.235
		c0-4.204,3.408-7.611,7.611-7.611c4.204,0,7.612,3.407,7.612,7.611C289.452,198.422,274.443,213.431,255.994,213.431z"/>
</g>
<g>
	<path style="fill:#F26200;" d="M322.74,486.506H189.26c-4.204,0-7.611-3.407-7.611-7.611s3.408-7.612,7.611-7.612h133.48
		c4.204,0,7.612,3.407,7.612,7.612S326.944,486.506,322.74,486.506z"/>
	<path style="fill:#F26200;" d="M275.846,512h-39.693c-4.204,0-7.611-3.407-7.611-7.612s3.408-7.611,7.611-7.611h39.693
		c4.204,0,7.612,3.407,7.612,7.611S280.05,512,275.846,512z"/>
</g>
<g>
</g>
<g>
</g>
<g>
</g>
<g>
</g>
<g>
</g>
<g>
</g>
<g>
</g>
<g>
</g>
<g>
</g>
<g>
</g>
<g>
</g>
<g>
</g>
<g>
</g>
<g>
</g>
<g>
</g>
</svg>
